<mxfile host="app.diagrams.net" modified="2023-07-21T01:11:14.516Z" agent="Mozilla/5.0 (Windows NT 10.0; Win64; x64; rv:109.0) Gecko/20100101 Firefox/115.0" etag="VNK6kQYgPhKdZdDE_qsW" version="21.6.5" type="device">
  <diagram name="Page-1" id="kHryNFfI9QbGABEdglzY">
    <mxGraphModel dx="1290" dy="489" grid="1" gridSize="10" guides="1" tooltips="1" connect="1" arrows="1" fold="1" page="1" pageScale="1" pageWidth="850" pageHeight="1100" math="0" shadow="0">
      <root>
        <mxCell id="0" />
        <mxCell id="1" parent="0" />
        <mxCell id="P1ksJmV45zGPL9x8nw98-1" value="START" style="ellipse;whiteSpace=wrap;html=1;" vertex="1" parent="1">
          <mxGeometry x="370" y="20" width="180" height="90" as="geometry" />
        </mxCell>
        <mxCell id="P1ksJmV45zGPL9x8nw98-2" value="" style="endArrow=classic;html=1;rounded=0;" edge="1" parent="1">
          <mxGeometry width="50" height="50" relative="1" as="geometry">
            <mxPoint x="460" y="110" as="sourcePoint" />
            <mxPoint x="460" y="200" as="targetPoint" />
          </mxGeometry>
        </mxCell>
        <mxCell id="P1ksJmV45zGPL9x8nw98-3" value="&lt;div&gt;Declare Variables:&lt;/div&gt;&lt;div&gt;-Explored Time (min.)&lt;/div&gt;&lt;div&gt;-Moves X&lt;/div&gt;&lt;div&gt;-Moves 0&lt;/div&gt;&lt;div&gt;-Total Game Number&lt;br&gt;&lt;/div&gt;&lt;div&gt;&lt;br&gt;&lt;/div&gt;" style="rounded=0;whiteSpace=wrap;html=1;rotation=0;" vertex="1" parent="1">
          <mxGeometry x="385" y="200" width="150" height="100" as="geometry" />
        </mxCell>
        <mxCell id="P1ksJmV45zGPL9x8nw98-4" value="" style="endArrow=classic;html=1;rounded=0;" edge="1" parent="1">
          <mxGeometry width="50" height="50" relative="1" as="geometry">
            <mxPoint x="460" y="300" as="sourcePoint" />
            <mxPoint x="460" y="400" as="targetPoint" />
          </mxGeometry>
        </mxCell>
        <mxCell id="P1ksJmV45zGPL9x8nw98-5" value="Call Random Search " style="rounded=0;whiteSpace=wrap;html=1;" vertex="1" parent="1">
          <mxGeometry x="385" y="400" width="150" height="60" as="geometry" />
        </mxCell>
        <mxCell id="P1ksJmV45zGPL9x8nw98-6" value="" style="endArrow=classic;html=1;rounded=0;" edge="1" parent="1">
          <mxGeometry width="50" height="50" relative="1" as="geometry">
            <mxPoint x="460" y="460" as="sourcePoint" />
            <mxPoint x="460" y="540" as="targetPoint" />
          </mxGeometry>
        </mxCell>
        <mxCell id="P1ksJmV45zGPL9x8nw98-7" value="Explore Room-A" style="rounded=0;whiteSpace=wrap;html=1;" vertex="1" parent="1">
          <mxGeometry x="380" y="540" width="160" height="60" as="geometry" />
        </mxCell>
        <mxCell id="P1ksJmV45zGPL9x8nw98-8" value="" style="endArrow=classic;html=1;rounded=0;entryX=0.5;entryY=0;entryDx=0;entryDy=0;" edge="1" parent="1" target="P1ksJmV45zGPL9x8nw98-9">
          <mxGeometry width="50" height="50" relative="1" as="geometry">
            <mxPoint x="459.5" y="600" as="sourcePoint" />
            <mxPoint x="459.5" y="695" as="targetPoint" />
          </mxGeometry>
        </mxCell>
        <mxCell id="P1ksJmV45zGPL9x8nw98-9" value="&lt;div&gt;Select and assign identifier &lt;br&gt;&lt;/div&gt;&lt;div&gt;(X/O)&lt;br&gt;&lt;/div&gt;" style="rounded=0;whiteSpace=wrap;html=1;" vertex="1" parent="1">
          <mxGeometry x="375" y="700" width="170" height="60" as="geometry" />
        </mxCell>
        <mxCell id="P1ksJmV45zGPL9x8nw98-10" value="" style="endArrow=classic;html=1;rounded=0;" edge="1" parent="1">
          <mxGeometry width="50" height="50" relative="1" as="geometry">
            <mxPoint x="460" y="760" as="sourcePoint" />
            <mxPoint x="460" y="840" as="targetPoint" />
          </mxGeometry>
        </mxCell>
        <mxCell id="P1ksJmV45zGPL9x8nw98-11" value="Call RandomBinary &amp;amp; Check Output" style="rounded=0;whiteSpace=wrap;html=1;" vertex="1" parent="1">
          <mxGeometry x="380" y="840" width="170" height="60" as="geometry" />
        </mxCell>
        <mxCell id="P1ksJmV45zGPL9x8nw98-12" value="If it is 1 ? " style="rhombus;whiteSpace=wrap;html=1;" vertex="1" parent="1">
          <mxGeometry x="400" y="990" width="120" height="110" as="geometry" />
        </mxCell>
        <mxCell id="P1ksJmV45zGPL9x8nw98-13" value="" style="endArrow=classic;html=1;rounded=0;" edge="1" parent="1">
          <mxGeometry width="50" height="50" relative="1" as="geometry">
            <mxPoint x="460" y="900" as="sourcePoint" />
            <mxPoint x="460" y="990" as="targetPoint" />
          </mxGeometry>
        </mxCell>
        <mxCell id="P1ksJmV45zGPL9x8nw98-15" value="NO" style="endArrow=classic;html=1;rounded=0;" edge="1" parent="1">
          <mxGeometry width="50" height="50" relative="1" as="geometry">
            <mxPoint x="460" y="1100" as="sourcePoint" />
            <mxPoint x="520" y="1160" as="targetPoint" />
          </mxGeometry>
        </mxCell>
        <mxCell id="P1ksJmV45zGPL9x8nw98-16" value="YES" style="endArrow=classic;html=1;rounded=0;exitX=0.5;exitY=1;exitDx=0;exitDy=0;" edge="1" parent="1" source="P1ksJmV45zGPL9x8nw98-12">
          <mxGeometry width="50" height="50" relative="1" as="geometry">
            <mxPoint x="400" y="1150" as="sourcePoint" />
            <mxPoint x="410" y="1160" as="targetPoint" />
          </mxGeometry>
        </mxCell>
        <mxCell id="P1ksJmV45zGPL9x8nw98-17" value="The user goes first" style="rounded=0;whiteSpace=wrap;html=1;" vertex="1" parent="1">
          <mxGeometry x="340" y="1160" width="120" height="60" as="geometry" />
        </mxCell>
        <mxCell id="P1ksJmV45zGPL9x8nw98-18" value="The sysyem goes first" style="rounded=0;whiteSpace=wrap;html=1;" vertex="1" parent="1">
          <mxGeometry x="490" y="1160" width="120" height="60" as="geometry" />
        </mxCell>
        <mxCell id="P1ksJmV45zGPL9x8nw98-19" value="" style="endArrow=none;html=1;rounded=0;" edge="1" parent="1">
          <mxGeometry width="50" height="50" relative="1" as="geometry">
            <mxPoint x="410" y="1280" as="sourcePoint" />
            <mxPoint x="410" y="1220" as="targetPoint" />
          </mxGeometry>
        </mxCell>
        <mxCell id="P1ksJmV45zGPL9x8nw98-20" value="" style="endArrow=none;html=1;rounded=0;" edge="1" parent="1">
          <mxGeometry width="50" height="50" relative="1" as="geometry">
            <mxPoint x="410" y="1280" as="sourcePoint" />
            <mxPoint x="480" y="1280" as="targetPoint" />
          </mxGeometry>
        </mxCell>
        <mxCell id="P1ksJmV45zGPL9x8nw98-21" value="" style="endArrow=none;html=1;rounded=0;" edge="1" parent="1">
          <mxGeometry width="50" height="50" relative="1" as="geometry">
            <mxPoint x="560" y="1280" as="sourcePoint" />
            <mxPoint x="560" y="1220" as="targetPoint" />
          </mxGeometry>
        </mxCell>
        <mxCell id="P1ksJmV45zGPL9x8nw98-24" value="" style="endArrow=none;html=1;rounded=0;" edge="1" parent="1">
          <mxGeometry width="50" height="50" relative="1" as="geometry">
            <mxPoint x="480" y="1280" as="sourcePoint" />
            <mxPoint x="560" y="1280" as="targetPoint" />
          </mxGeometry>
        </mxCell>
        <mxCell id="P1ksJmV45zGPL9x8nw98-27" value="" style="endArrow=classic;html=1;rounded=0;" edge="1" parent="1">
          <mxGeometry width="50" height="50" relative="1" as="geometry">
            <mxPoint x="490" y="1280" as="sourcePoint" />
            <mxPoint x="490" y="1350" as="targetPoint" />
          </mxGeometry>
        </mxCell>
        <mxCell id="P1ksJmV45zGPL9x8nw98-28" value="Call MakeMove" style="rounded=0;whiteSpace=wrap;html=1;" vertex="1" parent="1">
          <mxGeometry x="400" y="1350" width="170" height="60" as="geometry" />
        </mxCell>
        <mxCell id="P1ksJmV45zGPL9x8nw98-29" value="" style="endArrow=classic;html=1;rounded=0;" edge="1" parent="1">
          <mxGeometry width="50" height="50" relative="1" as="geometry">
            <mxPoint x="490" y="1410" as="sourcePoint" />
            <mxPoint x="490" y="1480" as="targetPoint" />
          </mxGeometry>
        </mxCell>
        <mxCell id="P1ksJmV45zGPL9x8nw98-33" value="&lt;div&gt;Check winning&amp;nbsp;&lt;/div&gt;&lt;div&gt;move for system X&lt;br&gt;&lt;/div&gt;" style="rhombus;whiteSpace=wrap;html=1;" vertex="1" parent="1">
          <mxGeometry x="420" y="1480" width="140" height="130" as="geometry" />
        </mxCell>
        <mxCell id="P1ksJmV45zGPL9x8nw98-34" value="" style="endArrow=classic;html=1;rounded=0;" edge="1" parent="1">
          <mxGeometry width="50" height="50" relative="1" as="geometry">
            <mxPoint x="420" y="1544.5" as="sourcePoint" />
            <mxPoint x="350" y="1544.5" as="targetPoint" />
          </mxGeometry>
        </mxCell>
        <mxCell id="P1ksJmV45zGPL9x8nw98-38" value="YES" style="edgeLabel;html=1;align=center;verticalAlign=middle;resizable=0;points=[];" vertex="1" connectable="0" parent="P1ksJmV45zGPL9x8nw98-34">
          <mxGeometry x="-0.0286" relative="1" as="geometry">
            <mxPoint as="offset" />
          </mxGeometry>
        </mxCell>
        <mxCell id="P1ksJmV45zGPL9x8nw98-35" value="" style="endArrow=classic;html=1;rounded=0;" edge="1" parent="1">
          <mxGeometry width="50" height="50" relative="1" as="geometry">
            <mxPoint x="560" y="1544.5" as="sourcePoint" />
            <mxPoint x="640" y="1544.5" as="targetPoint" />
          </mxGeometry>
        </mxCell>
        <mxCell id="P1ksJmV45zGPL9x8nw98-39" value="NO" style="edgeLabel;html=1;align=center;verticalAlign=middle;resizable=0;points=[];" vertex="1" connectable="0" parent="P1ksJmV45zGPL9x8nw98-35">
          <mxGeometry x="-0.075" y="-2" relative="1" as="geometry">
            <mxPoint y="1" as="offset" />
          </mxGeometry>
        </mxCell>
        <mxCell id="P1ksJmV45zGPL9x8nw98-36" value="Take it and go to the next step" style="rounded=0;whiteSpace=wrap;html=1;" vertex="1" parent="1">
          <mxGeometry x="230" y="1520" width="120" height="60" as="geometry" />
        </mxCell>
        <mxCell id="P1ksJmV45zGPL9x8nw98-37" value="Go to the next step" style="rounded=0;whiteSpace=wrap;html=1;" vertex="1" parent="1">
          <mxGeometry x="640" y="1520" width="120" height="60" as="geometry" />
        </mxCell>
        <mxCell id="P1ksJmV45zGPL9x8nw98-40" value="" style="endArrow=none;html=1;rounded=0;entryX=0.5;entryY=1;entryDx=0;entryDy=0;" edge="1" parent="1" target="P1ksJmV45zGPL9x8nw98-36">
          <mxGeometry width="50" height="50" relative="1" as="geometry">
            <mxPoint x="290" y="1660" as="sourcePoint" />
            <mxPoint x="300" y="1590" as="targetPoint" />
          </mxGeometry>
        </mxCell>
        <mxCell id="P1ksJmV45zGPL9x8nw98-41" value="" style="endArrow=none;html=1;rounded=0;" edge="1" parent="1">
          <mxGeometry width="50" height="50" relative="1" as="geometry">
            <mxPoint x="290" y="1660" as="sourcePoint" />
            <mxPoint x="700" y="1660" as="targetPoint" />
          </mxGeometry>
        </mxCell>
        <mxCell id="P1ksJmV45zGPL9x8nw98-42" value="" style="endArrow=none;html=1;rounded=0;entryX=0.5;entryY=1;entryDx=0;entryDy=0;" edge="1" parent="1" target="P1ksJmV45zGPL9x8nw98-37">
          <mxGeometry width="50" height="50" relative="1" as="geometry">
            <mxPoint x="700" y="1660" as="sourcePoint" />
            <mxPoint x="740" y="1610" as="targetPoint" />
            <Array as="points">
              <mxPoint x="700" y="1630" />
            </Array>
          </mxGeometry>
        </mxCell>
        <mxCell id="P1ksJmV45zGPL9x8nw98-43" value="" style="endArrow=classic;html=1;rounded=0;" edge="1" parent="1">
          <mxGeometry width="50" height="50" relative="1" as="geometry">
            <mxPoint x="490" y="1660" as="sourcePoint" />
            <mxPoint x="490" y="1760" as="targetPoint" />
            <Array as="points">
              <mxPoint x="490" y="1720" />
            </Array>
          </mxGeometry>
        </mxCell>
        <mxCell id="P1ksJmV45zGPL9x8nw98-44" value="Count moves and store in movesX" style="rounded=0;whiteSpace=wrap;html=1;" vertex="1" parent="1">
          <mxGeometry x="410" y="1760" width="170" height="60" as="geometry" />
        </mxCell>
        <mxCell id="P1ksJmV45zGPL9x8nw98-45" value="" style="endArrow=classic;html=1;rounded=0;" edge="1" parent="1">
          <mxGeometry width="50" height="50" relative="1" as="geometry">
            <mxPoint x="490" y="1820" as="sourcePoint" />
            <mxPoint x="490" y="1890" as="targetPoint" />
          </mxGeometry>
        </mxCell>
        <mxCell id="P1ksJmV45zGPL9x8nw98-48" value="&lt;div&gt;Check winning&amp;nbsp;&lt;/div&gt;&lt;div&gt;move for user O&lt;br&gt;&lt;/div&gt;" style="rhombus;whiteSpace=wrap;html=1;" vertex="1" parent="1">
          <mxGeometry x="420" y="1890" width="140" height="130" as="geometry" />
        </mxCell>
        <mxCell id="P1ksJmV45zGPL9x8nw98-49" value="" style="endArrow=classic;html=1;rounded=0;" edge="1" parent="1">
          <mxGeometry width="50" height="50" relative="1" as="geometry">
            <mxPoint x="420" y="1954.5" as="sourcePoint" />
            <mxPoint x="350" y="1954.5" as="targetPoint" />
          </mxGeometry>
        </mxCell>
        <mxCell id="P1ksJmV45zGPL9x8nw98-50" value="YES" style="edgeLabel;html=1;align=center;verticalAlign=middle;resizable=0;points=[];" vertex="1" connectable="0" parent="P1ksJmV45zGPL9x8nw98-49">
          <mxGeometry x="-0.0286" relative="1" as="geometry">
            <mxPoint as="offset" />
          </mxGeometry>
        </mxCell>
        <mxCell id="P1ksJmV45zGPL9x8nw98-51" value="" style="endArrow=classic;html=1;rounded=0;" edge="1" parent="1">
          <mxGeometry width="50" height="50" relative="1" as="geometry">
            <mxPoint x="560" y="1954.5" as="sourcePoint" />
            <mxPoint x="640" y="1954.5" as="targetPoint" />
          </mxGeometry>
        </mxCell>
        <mxCell id="P1ksJmV45zGPL9x8nw98-52" value="NO" style="edgeLabel;html=1;align=center;verticalAlign=middle;resizable=0;points=[];" vertex="1" connectable="0" parent="P1ksJmV45zGPL9x8nw98-51">
          <mxGeometry x="-0.075" y="-2" relative="1" as="geometry">
            <mxPoint y="1" as="offset" />
          </mxGeometry>
        </mxCell>
        <mxCell id="P1ksJmV45zGPL9x8nw98-53" value="Block the player and go to the step " style="rounded=0;whiteSpace=wrap;html=1;" vertex="1" parent="1">
          <mxGeometry x="230" y="1930" width="120" height="60" as="geometry" />
        </mxCell>
        <mxCell id="P1ksJmV45zGPL9x8nw98-54" value="Go to the next step" style="rounded=0;whiteSpace=wrap;html=1;" vertex="1" parent="1">
          <mxGeometry x="640" y="1930" width="120" height="60" as="geometry" />
        </mxCell>
        <mxCell id="P1ksJmV45zGPL9x8nw98-55" value="" style="endArrow=none;html=1;rounded=0;entryX=0.5;entryY=1;entryDx=0;entryDy=0;" edge="1" parent="1" target="P1ksJmV45zGPL9x8nw98-53">
          <mxGeometry width="50" height="50" relative="1" as="geometry">
            <mxPoint x="290" y="2070" as="sourcePoint" />
            <mxPoint x="300" y="2000" as="targetPoint" />
          </mxGeometry>
        </mxCell>
        <mxCell id="P1ksJmV45zGPL9x8nw98-56" value="" style="endArrow=none;html=1;rounded=0;" edge="1" parent="1">
          <mxGeometry width="50" height="50" relative="1" as="geometry">
            <mxPoint x="290" y="2070" as="sourcePoint" />
            <mxPoint x="700" y="2070" as="targetPoint" />
          </mxGeometry>
        </mxCell>
        <mxCell id="P1ksJmV45zGPL9x8nw98-57" value="" style="endArrow=none;html=1;rounded=0;entryX=0.5;entryY=1;entryDx=0;entryDy=0;" edge="1" parent="1" target="P1ksJmV45zGPL9x8nw98-54">
          <mxGeometry width="50" height="50" relative="1" as="geometry">
            <mxPoint x="700" y="2070" as="sourcePoint" />
            <mxPoint x="740" y="2020" as="targetPoint" />
            <Array as="points">
              <mxPoint x="700" y="2040" />
            </Array>
          </mxGeometry>
        </mxCell>
        <mxCell id="P1ksJmV45zGPL9x8nw98-58" value="" style="endArrow=classic;html=1;rounded=0;" edge="1" parent="1">
          <mxGeometry width="50" height="50" relative="1" as="geometry">
            <mxPoint x="490" y="2070" as="sourcePoint" />
            <mxPoint x="490" y="2170" as="targetPoint" />
            <Array as="points">
              <mxPoint x="490" y="2130" />
            </Array>
          </mxGeometry>
        </mxCell>
        <mxCell id="P1ksJmV45zGPL9x8nw98-59" value="Count moves and store in moves O" style="rounded=0;whiteSpace=wrap;html=1;" vertex="1" parent="1">
          <mxGeometry x="410" y="2170" width="170" height="60" as="geometry" />
        </mxCell>
        <mxCell id="P1ksJmV45zGPL9x8nw98-60" value="" style="endArrow=classic;html=1;rounded=0;" edge="1" parent="1">
          <mxGeometry width="50" height="50" relative="1" as="geometry">
            <mxPoint x="490" y="2230" as="sourcePoint" />
            <mxPoint x="490" y="2300" as="targetPoint" />
          </mxGeometry>
        </mxCell>
        <mxCell id="P1ksJmV45zGPL9x8nw98-61" value="&lt;div&gt;If there are any corner &lt;br&gt;&lt;/div&gt;&lt;div&gt;spaces &lt;br&gt;&lt;/div&gt;&lt;div&gt;(i.e1,3,7,9)&lt;br&gt;&lt;/div&gt;" style="rhombus;whiteSpace=wrap;html=1;" vertex="1" parent="1">
          <mxGeometry x="402.5" y="2300" width="175" height="140" as="geometry" />
        </mxCell>
        <mxCell id="P1ksJmV45zGPL9x8nw98-65" value="" style="endArrow=classic;html=1;rounded=0;" edge="1" parent="1">
          <mxGeometry width="50" height="50" relative="1" as="geometry">
            <mxPoint x="577.5" y="2369.5" as="sourcePoint" />
            <mxPoint x="657.5" y="2369.5" as="targetPoint" />
          </mxGeometry>
        </mxCell>
        <mxCell id="P1ksJmV45zGPL9x8nw98-66" value="NO" style="edgeLabel;html=1;align=center;verticalAlign=middle;resizable=0;points=[];" vertex="1" connectable="0" parent="P1ksJmV45zGPL9x8nw98-65">
          <mxGeometry x="-0.075" y="-2" relative="1" as="geometry">
            <mxPoint y="1" as="offset" />
          </mxGeometry>
        </mxCell>
        <mxCell id="P1ksJmV45zGPL9x8nw98-67" value="Take it and go to the next step" style="rounded=0;whiteSpace=wrap;html=1;" vertex="1" parent="1">
          <mxGeometry x="210" y="2350" width="120" height="60" as="geometry" />
        </mxCell>
        <mxCell id="P1ksJmV45zGPL9x8nw98-68" value="Go to the next step" style="rounded=0;whiteSpace=wrap;html=1;" vertex="1" parent="1">
          <mxGeometry x="660" y="2340" width="120" height="60" as="geometry" />
        </mxCell>
        <mxCell id="P1ksJmV45zGPL9x8nw98-69" value="" style="endArrow=none;html=1;rounded=0;entryX=0.5;entryY=1;entryDx=0;entryDy=0;" edge="1" parent="1" target="P1ksJmV45zGPL9x8nw98-67">
          <mxGeometry width="50" height="50" relative="1" as="geometry">
            <mxPoint x="270" y="2590" as="sourcePoint" />
            <mxPoint x="297.5" y="2590" as="targetPoint" />
          </mxGeometry>
        </mxCell>
        <mxCell id="P1ksJmV45zGPL9x8nw98-75" value="" style="endArrow=classic;html=1;rounded=0;" edge="1" parent="1">
          <mxGeometry width="50" height="50" relative="1" as="geometry">
            <mxPoint x="402.5" y="2369.5" as="sourcePoint" />
            <mxPoint x="332.5" y="2369.5" as="targetPoint" />
          </mxGeometry>
        </mxCell>
        <mxCell id="P1ksJmV45zGPL9x8nw98-76" value="YES" style="edgeLabel;html=1;align=center;verticalAlign=middle;resizable=0;points=[];" vertex="1" connectable="0" parent="P1ksJmV45zGPL9x8nw98-75">
          <mxGeometry x="0.1" relative="1" as="geometry">
            <mxPoint x="1" as="offset" />
          </mxGeometry>
        </mxCell>
        <mxCell id="P1ksJmV45zGPL9x8nw98-77" value="" style="endArrow=classic;html=1;rounded=0;" edge="1" parent="1">
          <mxGeometry width="50" height="50" relative="1" as="geometry">
            <mxPoint x="720" y="2400" as="sourcePoint" />
            <mxPoint x="720" y="2520" as="targetPoint" />
          </mxGeometry>
        </mxCell>
        <mxCell id="P1ksJmV45zGPL9x8nw98-78" value="If there any center position ?" style="rhombus;whiteSpace=wrap;html=1;" vertex="1" parent="1">
          <mxGeometry x="655" y="2520" width="130" height="100" as="geometry" />
        </mxCell>
        <mxCell id="P1ksJmV45zGPL9x8nw98-79" value="" style="endArrow=classic;html=1;rounded=0;" edge="1" parent="1">
          <mxGeometry width="50" height="50" relative="1" as="geometry">
            <mxPoint x="655" y="2570" as="sourcePoint" />
            <mxPoint x="560" y="2570" as="targetPoint" />
          </mxGeometry>
        </mxCell>
        <mxCell id="P1ksJmV45zGPL9x8nw98-80" value="YES" style="edgeLabel;html=1;align=center;verticalAlign=middle;resizable=0;points=[];" vertex="1" connectable="0" parent="P1ksJmV45zGPL9x8nw98-79">
          <mxGeometry x="-0.0316" y="-2" relative="1" as="geometry">
            <mxPoint as="offset" />
          </mxGeometry>
        </mxCell>
        <mxCell id="P1ksJmV45zGPL9x8nw98-83" value="" style="endArrow=classic;html=1;rounded=0;exitX=0.5;exitY=1;exitDx=0;exitDy=0;" edge="1" parent="1" source="P1ksJmV45zGPL9x8nw98-78">
          <mxGeometry width="50" height="50" relative="1" as="geometry">
            <mxPoint x="730" y="2650" as="sourcePoint" />
            <mxPoint x="720" y="2710" as="targetPoint" />
          </mxGeometry>
        </mxCell>
        <mxCell id="P1ksJmV45zGPL9x8nw98-84" value="NO" style="edgeLabel;html=1;align=center;verticalAlign=middle;resizable=0;points=[];" vertex="1" connectable="0" parent="P1ksJmV45zGPL9x8nw98-83">
          <mxGeometry x="-0.1333" relative="1" as="geometry">
            <mxPoint as="offset" />
          </mxGeometry>
        </mxCell>
        <mxCell id="P1ksJmV45zGPL9x8nw98-85" value="Take it and go to the next step" style="rounded=0;whiteSpace=wrap;html=1;" vertex="1" parent="1">
          <mxGeometry x="440" y="2550" width="120" height="60" as="geometry" />
        </mxCell>
        <mxCell id="P1ksJmV45zGPL9x8nw98-86" value="If there are any side positions ? (i.e 2,4,6,8)" style="rhombus;whiteSpace=wrap;html=1;" vertex="1" parent="1">
          <mxGeometry x="650" y="2710" width="140" height="120" as="geometry" />
        </mxCell>
        <mxCell id="P1ksJmV45zGPL9x8nw98-87" value="" style="endArrow=classic;html=1;rounded=0;" edge="1" parent="1">
          <mxGeometry width="50" height="50" relative="1" as="geometry">
            <mxPoint x="650" y="2770" as="sourcePoint" />
            <mxPoint x="550" y="2770" as="targetPoint" />
          </mxGeometry>
        </mxCell>
        <mxCell id="P1ksJmV45zGPL9x8nw98-88" value="YES" style="edgeLabel;html=1;align=center;verticalAlign=middle;resizable=0;points=[];" vertex="1" connectable="0" parent="P1ksJmV45zGPL9x8nw98-87">
          <mxGeometry x="-0.0545" relative="1" as="geometry">
            <mxPoint as="offset" />
          </mxGeometry>
        </mxCell>
        <mxCell id="P1ksJmV45zGPL9x8nw98-89" value="Take it and go to the next step" style="rounded=0;whiteSpace=wrap;html=1;" vertex="1" parent="1">
          <mxGeometry x="430" y="2740" width="120" height="60" as="geometry" />
        </mxCell>
        <mxCell id="P1ksJmV45zGPL9x8nw98-91" value="" style="endArrow=none;html=1;rounded=0;entryX=-0.017;entryY=0.633;entryDx=0;entryDy=0;entryPerimeter=0;" edge="1" parent="1" target="P1ksJmV45zGPL9x8nw98-85">
          <mxGeometry width="50" height="50" relative="1" as="geometry">
            <mxPoint x="270" y="2590" as="sourcePoint" />
            <mxPoint x="320" y="2540" as="targetPoint" />
          </mxGeometry>
        </mxCell>
        <mxCell id="P1ksJmV45zGPL9x8nw98-92" value="" style="endArrow=none;html=1;rounded=0;" edge="1" parent="1">
          <mxGeometry width="50" height="50" relative="1" as="geometry">
            <mxPoint x="270" y="2760" as="sourcePoint" />
            <mxPoint x="430" y="2760" as="targetPoint" />
            <Array as="points" />
          </mxGeometry>
        </mxCell>
        <mxCell id="P1ksJmV45zGPL9x8nw98-93" value="" style="endArrow=none;html=1;rounded=0;" edge="1" parent="1">
          <mxGeometry width="50" height="50" relative="1" as="geometry">
            <mxPoint x="270" y="2760" as="sourcePoint" />
            <mxPoint x="270" y="2590" as="targetPoint" />
          </mxGeometry>
        </mxCell>
        <mxCell id="P1ksJmV45zGPL9x8nw98-94" value="NO" style="endArrow=classic;html=1;rounded=0;exitX=0.5;exitY=1;exitDx=0;exitDy=0;entryX=0.5;entryY=0;entryDx=0;entryDy=0;" edge="1" parent="1" source="P1ksJmV45zGPL9x8nw98-86" target="P1ksJmV45zGPL9x8nw98-101">
          <mxGeometry width="50" height="50" relative="1" as="geometry">
            <mxPoint x="710" y="2890" as="sourcePoint" />
            <mxPoint x="720" y="2910" as="targetPoint" />
          </mxGeometry>
        </mxCell>
        <mxCell id="P1ksJmV45zGPL9x8nw98-96" value="" style="endArrow=none;html=1;rounded=0;" edge="1" parent="1">
          <mxGeometry width="50" height="50" relative="1" as="geometry">
            <mxPoint x="220" y="2590" as="sourcePoint" />
            <mxPoint x="270" y="2590" as="targetPoint" />
          </mxGeometry>
        </mxCell>
        <mxCell id="P1ksJmV45zGPL9x8nw98-97" value="" style="endArrow=classic;html=1;rounded=0;" edge="1" parent="1">
          <mxGeometry width="50" height="50" relative="1" as="geometry">
            <mxPoint x="220" y="2590" as="sourcePoint" />
            <mxPoint x="220" y="2930" as="targetPoint" />
          </mxGeometry>
        </mxCell>
        <mxCell id="P1ksJmV45zGPL9x8nw98-98" value="Ask user to take a move and go to step" style="rounded=0;whiteSpace=wrap;html=1;" vertex="1" parent="1">
          <mxGeometry x="160" y="2930" width="120" height="60" as="geometry" />
        </mxCell>
        <mxCell id="P1ksJmV45zGPL9x8nw98-99" value="explored_timeA=explored_timeA+1 * movesX + 1 * movesO" style="rounded=0;whiteSpace=wrap;html=1;" vertex="1" parent="1">
          <mxGeometry x="270" y="3040" width="200" height="70" as="geometry" />
        </mxCell>
        <mxCell id="P1ksJmV45zGPL9x8nw98-100" value="" style="endArrow=classic;html=1;rounded=0;entryX=0;entryY=0.5;entryDx=0;entryDy=0;" edge="1" parent="1" target="P1ksJmV45zGPL9x8nw98-99">
          <mxGeometry width="50" height="50" relative="1" as="geometry">
            <mxPoint x="220" y="2990" as="sourcePoint" />
            <mxPoint x="270" y="2940" as="targetPoint" />
          </mxGeometry>
        </mxCell>
        <mxCell id="P1ksJmV45zGPL9x8nw98-101" value="Call blackbox CheckWinnner" style="rounded=0;whiteSpace=wrap;html=1;" vertex="1" parent="1">
          <mxGeometry x="480" y="3160" width="200" height="60" as="geometry" />
        </mxCell>
        <mxCell id="P1ksJmV45zGPL9x8nw98-102" value="" style="endArrow=classic;html=1;rounded=0;entryX=0;entryY=0.5;entryDx=0;entryDy=0;" edge="1" parent="1" target="P1ksJmV45zGPL9x8nw98-101">
          <mxGeometry width="50" height="50" relative="1" as="geometry">
            <mxPoint x="380" y="3110" as="sourcePoint" />
            <mxPoint x="470" y="3190" as="targetPoint" />
          </mxGeometry>
        </mxCell>
        <mxCell id="P1ksJmV45zGPL9x8nw98-103" value="&lt;div&gt;Check system move X is vertical/horizontal /diagonal&lt;/div&gt;&lt;div&gt;&amp;nbsp;form&lt;/div&gt;" style="rhombus;whiteSpace=wrap;html=1;" vertex="1" parent="1">
          <mxGeometry x="470" y="3310" width="180" height="130" as="geometry" />
        </mxCell>
        <mxCell id="P1ksJmV45zGPL9x8nw98-104" value="" style="endArrow=classic;html=1;rounded=0;exitX=0.395;exitY=0.967;exitDx=0;exitDy=0;exitPerimeter=0;entryX=0.5;entryY=0;entryDx=0;entryDy=0;" edge="1" parent="1" source="P1ksJmV45zGPL9x8nw98-101" target="P1ksJmV45zGPL9x8nw98-103">
          <mxGeometry width="50" height="50" relative="1" as="geometry">
            <mxPoint x="570" y="3270" as="sourcePoint" />
            <mxPoint x="620" y="3220" as="targetPoint" />
          </mxGeometry>
        </mxCell>
        <mxCell id="P1ksJmV45zGPL9x8nw98-105" value="" style="endArrow=classic;html=1;rounded=0;" edge="1" parent="1">
          <mxGeometry width="50" height="50" relative="1" as="geometry">
            <mxPoint x="560" y="3440" as="sourcePoint" />
            <mxPoint x="500" y="3500" as="targetPoint" />
          </mxGeometry>
        </mxCell>
        <mxCell id="P1ksJmV45zGPL9x8nw98-106" value="YES" style="edgeLabel;html=1;align=center;verticalAlign=middle;resizable=0;points=[];" vertex="1" connectable="0" parent="P1ksJmV45zGPL9x8nw98-105">
          <mxGeometry x="-0.2353" y="3" relative="1" as="geometry">
            <mxPoint as="offset" />
          </mxGeometry>
        </mxCell>
        <mxCell id="P1ksJmV45zGPL9x8nw98-107" value="" style="endArrow=classic;html=1;rounded=0;" edge="1" parent="1">
          <mxGeometry width="50" height="50" relative="1" as="geometry">
            <mxPoint x="560" y="3440" as="sourcePoint" />
            <mxPoint x="620" y="3500" as="targetPoint" />
          </mxGeometry>
        </mxCell>
        <mxCell id="P1ksJmV45zGPL9x8nw98-108" value="NO" style="edgeLabel;html=1;align=center;verticalAlign=middle;resizable=0;points=[];" vertex="1" connectable="0" parent="P1ksJmV45zGPL9x8nw98-107">
          <mxGeometry x="-0.1351" relative="1" as="geometry">
            <mxPoint as="offset" />
          </mxGeometry>
        </mxCell>
        <mxCell id="P1ksJmV45zGPL9x8nw98-110" value="System Wins" style="rounded=0;whiteSpace=wrap;html=1;" vertex="1" parent="1">
          <mxGeometry x="420" y="3500" width="145" height="60" as="geometry" />
        </mxCell>
        <mxCell id="P1ksJmV45zGPL9x8nw98-111" value="Go to the next step" style="rounded=0;whiteSpace=wrap;html=1;" vertex="1" parent="1">
          <mxGeometry x="590" y="3500" width="120" height="60" as="geometry" />
        </mxCell>
        <mxCell id="P1ksJmV45zGPL9x8nw98-112" value="" style="endArrow=none;html=1;rounded=0;" edge="1" parent="1">
          <mxGeometry width="50" height="50" relative="1" as="geometry">
            <mxPoint x="490" y="3620" as="sourcePoint" />
            <mxPoint x="490" y="3560" as="targetPoint" />
          </mxGeometry>
        </mxCell>
        <mxCell id="P1ksJmV45zGPL9x8nw98-113" value="" style="endArrow=none;html=1;rounded=0;" edge="1" parent="1">
          <mxGeometry width="50" height="50" relative="1" as="geometry">
            <mxPoint x="490" y="3620" as="sourcePoint" />
            <mxPoint x="650" y="3620" as="targetPoint" />
          </mxGeometry>
        </mxCell>
        <mxCell id="P1ksJmV45zGPL9x8nw98-114" value="" style="endArrow=none;html=1;rounded=0;entryX=0.5;entryY=1;entryDx=0;entryDy=0;" edge="1" parent="1" target="P1ksJmV45zGPL9x8nw98-111">
          <mxGeometry width="50" height="50" relative="1" as="geometry">
            <mxPoint x="650" y="3620" as="sourcePoint" />
            <mxPoint x="730" y="3570" as="targetPoint" />
          </mxGeometry>
        </mxCell>
        <mxCell id="P1ksJmV45zGPL9x8nw98-115" value="" style="endArrow=classic;html=1;rounded=0;" edge="1" parent="1">
          <mxGeometry width="50" height="50" relative="1" as="geometry">
            <mxPoint x="570" y="3620" as="sourcePoint" />
            <mxPoint x="570" y="3700" as="targetPoint" />
          </mxGeometry>
        </mxCell>
        <mxCell id="P1ksJmV45zGPL9x8nw98-117" value="explored_timeA=explored_timeA+5" style="rounded=0;whiteSpace=wrap;html=1;" vertex="1" parent="1">
          <mxGeometry x="470" y="3700" width="190" height="60" as="geometry" />
        </mxCell>
        <mxCell id="P1ksJmV45zGPL9x8nw98-118" value="" style="endArrow=classic;html=1;rounded=0;" edge="1" parent="1">
          <mxGeometry width="50" height="50" relative="1" as="geometry">
            <mxPoint x="570" y="3760" as="sourcePoint" />
            <mxPoint x="570" y="3840" as="targetPoint" />
          </mxGeometry>
        </mxCell>
        <mxCell id="P1ksJmV45zGPL9x8nw98-119" value="&lt;div&gt;Check user move O is i vertical/horizontal&amp;nbsp;&lt;/div&gt;&lt;div&gt;/diagonal form&lt;/div&gt;" style="rhombus;whiteSpace=wrap;html=1;" vertex="1" parent="1">
          <mxGeometry x="485" y="3840" width="170" height="120" as="geometry" />
        </mxCell>
        <mxCell id="P1ksJmV45zGPL9x8nw98-120" value="" style="endArrow=classic;html=1;rounded=0;entryX=0.5;entryY=0;entryDx=0;entryDy=0;" edge="1" parent="1" target="P1ksJmV45zGPL9x8nw98-121">
          <mxGeometry width="50" height="50" relative="1" as="geometry">
            <mxPoint x="570" y="3960" as="sourcePoint" />
            <mxPoint x="520" y="4010" as="targetPoint" />
          </mxGeometry>
        </mxCell>
        <mxCell id="P1ksJmV45zGPL9x8nw98-123" value="YES" style="edgeLabel;html=1;align=center;verticalAlign=middle;resizable=0;points=[];" vertex="1" connectable="0" parent="P1ksJmV45zGPL9x8nw98-120">
          <mxGeometry x="0.0136" y="3" relative="1" as="geometry">
            <mxPoint as="offset" />
          </mxGeometry>
        </mxCell>
        <mxCell id="P1ksJmV45zGPL9x8nw98-121" value="User Wins" style="rounded=0;whiteSpace=wrap;html=1;" vertex="1" parent="1">
          <mxGeometry x="370" y="4060" width="190" height="60" as="geometry" />
        </mxCell>
        <mxCell id="P1ksJmV45zGPL9x8nw98-124" value="" style="endArrow=classic;html=1;rounded=0;" edge="1" parent="1">
          <mxGeometry width="50" height="50" relative="1" as="geometry">
            <mxPoint x="570" y="3960" as="sourcePoint" />
            <mxPoint x="660" y="4060" as="targetPoint" />
          </mxGeometry>
        </mxCell>
        <mxCell id="P1ksJmV45zGPL9x8nw98-128" value="NO" style="edgeLabel;html=1;align=center;verticalAlign=middle;resizable=0;points=[];" vertex="1" connectable="0" parent="P1ksJmV45zGPL9x8nw98-124">
          <mxGeometry x="0.2099" y="1" relative="1" as="geometry">
            <mxPoint as="offset" />
          </mxGeometry>
        </mxCell>
        <mxCell id="P1ksJmV45zGPL9x8nw98-125" value="Game is draw" style="rounded=0;whiteSpace=wrap;html=1;" vertex="1" parent="1">
          <mxGeometry x="590" y="4060" width="180" height="60" as="geometry" />
        </mxCell>
        <mxCell id="P1ksJmV45zGPL9x8nw98-130" value="" style="endArrow=none;html=1;rounded=0;" edge="1" parent="1">
          <mxGeometry width="50" height="50" relative="1" as="geometry">
            <mxPoint x="770" y="4090" as="sourcePoint" />
            <mxPoint x="900" y="4090" as="targetPoint" />
          </mxGeometry>
        </mxCell>
        <mxCell id="P1ksJmV45zGPL9x8nw98-173" value="NO" style="edgeLabel;html=1;align=center;verticalAlign=middle;resizable=0;points=[];" vertex="1" connectable="0" parent="P1ksJmV45zGPL9x8nw98-130">
          <mxGeometry x="-0.2769" relative="1" as="geometry">
            <mxPoint as="offset" />
          </mxGeometry>
        </mxCell>
        <mxCell id="P1ksJmV45zGPL9x8nw98-131" value="" style="endArrow=none;html=1;rounded=0;" edge="1" parent="1">
          <mxGeometry width="50" height="50" relative="1" as="geometry">
            <mxPoint x="900" y="4090" as="sourcePoint" />
            <mxPoint x="880" y="720" as="targetPoint" />
          </mxGeometry>
        </mxCell>
        <mxCell id="P1ksJmV45zGPL9x8nw98-174" value="NO" style="edgeLabel;html=1;align=center;verticalAlign=middle;resizable=0;points=[];" vertex="1" connectable="0" parent="P1ksJmV45zGPL9x8nw98-131">
          <mxGeometry x="-0.7359" relative="1" as="geometry">
            <mxPoint as="offset" />
          </mxGeometry>
        </mxCell>
        <mxCell id="P1ksJmV45zGPL9x8nw98-175" value="NO" style="edgeLabel;html=1;align=center;verticalAlign=middle;resizable=0;points=[];" vertex="1" connectable="0" parent="P1ksJmV45zGPL9x8nw98-131">
          <mxGeometry x="-0.4172" y="2" relative="1" as="geometry">
            <mxPoint as="offset" />
          </mxGeometry>
        </mxCell>
        <mxCell id="P1ksJmV45zGPL9x8nw98-176" value="NO" style="edgeLabel;html=1;align=center;verticalAlign=middle;resizable=0;points=[];" vertex="1" connectable="0" parent="P1ksJmV45zGPL9x8nw98-131">
          <mxGeometry x="-0.1656" y="2" relative="1" as="geometry">
            <mxPoint as="offset" />
          </mxGeometry>
        </mxCell>
        <mxCell id="P1ksJmV45zGPL9x8nw98-178" value="NO" style="edgeLabel;html=1;align=center;verticalAlign=middle;resizable=0;points=[];" vertex="1" connectable="0" parent="P1ksJmV45zGPL9x8nw98-131">
          <mxGeometry x="0.2083" y="1" relative="1" as="geometry">
            <mxPoint as="offset" />
          </mxGeometry>
        </mxCell>
        <mxCell id="P1ksJmV45zGPL9x8nw98-181" value="NO" style="edgeLabel;html=1;align=center;verticalAlign=middle;resizable=0;points=[];" vertex="1" connectable="0" parent="P1ksJmV45zGPL9x8nw98-131">
          <mxGeometry x="0.6042" y="1" relative="1" as="geometry">
            <mxPoint as="offset" />
          </mxGeometry>
        </mxCell>
        <mxCell id="P1ksJmV45zGPL9x8nw98-182" value="NO" style="edgeLabel;html=1;align=center;verticalAlign=middle;resizable=0;points=[];" vertex="1" connectable="0" parent="P1ksJmV45zGPL9x8nw98-131">
          <mxGeometry x="0.8795" y="1" relative="1" as="geometry">
            <mxPoint as="offset" />
          </mxGeometry>
        </mxCell>
        <mxCell id="P1ksJmV45zGPL9x8nw98-132" value="" style="endArrow=classic;html=1;rounded=0;entryX=1.018;entryY=0.367;entryDx=0;entryDy=0;entryPerimeter=0;" edge="1" parent="1" target="P1ksJmV45zGPL9x8nw98-9">
          <mxGeometry width="50" height="50" relative="1" as="geometry">
            <mxPoint x="880" y="720" as="sourcePoint" />
            <mxPoint x="930" y="670" as="targetPoint" />
          </mxGeometry>
        </mxCell>
        <mxCell id="P1ksJmV45zGPL9x8nw98-185" value="NO" style="edgeLabel;html=1;align=center;verticalAlign=middle;resizable=0;points=[];" vertex="1" connectable="0" parent="P1ksJmV45zGPL9x8nw98-132">
          <mxGeometry x="0.2593" y="2" relative="1" as="geometry">
            <mxPoint as="offset" />
          </mxGeometry>
        </mxCell>
        <mxCell id="P1ksJmV45zGPL9x8nw98-133" value="" style="endArrow=none;html=1;rounded=0;" edge="1" parent="1">
          <mxGeometry width="50" height="50" relative="1" as="geometry">
            <mxPoint x="480" y="4200" as="sourcePoint" />
            <mxPoint x="480" y="4120" as="targetPoint" />
          </mxGeometry>
        </mxCell>
        <mxCell id="P1ksJmV45zGPL9x8nw98-134" value="" style="endArrow=none;html=1;rounded=0;" edge="1" parent="1">
          <mxGeometry width="50" height="50" relative="1" as="geometry">
            <mxPoint x="480" y="4200" as="sourcePoint" />
            <mxPoint x="720" y="4200" as="targetPoint" />
          </mxGeometry>
        </mxCell>
        <mxCell id="P1ksJmV45zGPL9x8nw98-135" value="" style="endArrow=none;html=1;rounded=0;entryX=0.717;entryY=1.05;entryDx=0;entryDy=0;entryPerimeter=0;" edge="1" parent="1" target="P1ksJmV45zGPL9x8nw98-125">
          <mxGeometry width="50" height="50" relative="1" as="geometry">
            <mxPoint x="720" y="4200" as="sourcePoint" />
            <mxPoint x="770" y="4150" as="targetPoint" />
          </mxGeometry>
        </mxCell>
        <mxCell id="P1ksJmV45zGPL9x8nw98-136" value="" style="endArrow=classic;html=1;rounded=0;" edge="1" parent="1">
          <mxGeometry width="50" height="50" relative="1" as="geometry">
            <mxPoint x="600" y="4200" as="sourcePoint" />
            <mxPoint x="600" y="4280" as="targetPoint" />
          </mxGeometry>
        </mxCell>
        <mxCell id="P1ksJmV45zGPL9x8nw98-137" value="explored_timeA=explored_timeA+2" style="rounded=0;whiteSpace=wrap;html=1;" vertex="1" parent="1">
          <mxGeometry x="510" y="4280" width="190" height="80" as="geometry" />
        </mxCell>
        <mxCell id="P1ksJmV45zGPL9x8nw98-140" value="" style="endArrow=classic;html=1;rounded=0;" edge="1" parent="1">
          <mxGeometry width="50" height="50" relative="1" as="geometry">
            <mxPoint x="600" y="4360" as="sourcePoint" />
            <mxPoint x="600" y="4440" as="targetPoint" />
          </mxGeometry>
        </mxCell>
        <mxCell id="P1ksJmV45zGPL9x8nw98-141" value="Call ClearBoard" style="rounded=0;whiteSpace=wrap;html=1;" vertex="1" parent="1">
          <mxGeometry x="500" y="4440" width="200" height="60" as="geometry" />
        </mxCell>
        <mxCell id="P1ksJmV45zGPL9x8nw98-142" value="" style="endArrow=classic;html=1;rounded=0;" edge="1" parent="1">
          <mxGeometry width="50" height="50" relative="1" as="geometry">
            <mxPoint x="600" y="4500" as="sourcePoint" />
            <mxPoint x="600" y="4570" as="targetPoint" />
          </mxGeometry>
        </mxCell>
        <mxCell id="P1ksJmV45zGPL9x8nw98-143" value="totalexplored_time()= explore_timeA +explore_timeB" style="rounded=0;whiteSpace=wrap;html=1;" vertex="1" parent="1">
          <mxGeometry x="500" y="4570" width="210" height="60" as="geometry" />
        </mxCell>
        <mxCell id="P1ksJmV45zGPL9x8nw98-144" value="" style="endArrow=classic;html=1;rounded=0;" edge="1" parent="1">
          <mxGeometry width="50" height="50" relative="1" as="geometry">
            <mxPoint x="599.5" y="4630" as="sourcePoint" />
            <mxPoint x="599.5" y="4700" as="targetPoint" />
          </mxGeometry>
        </mxCell>
        <mxCell id="P1ksJmV45zGPL9x8nw98-147" value="totalgamenumber = totalgamenumber-1" style="rounded=0;whiteSpace=wrap;html=1;" vertex="1" parent="1">
          <mxGeometry x="500" y="4700" width="210" height="60" as="geometry" />
        </mxCell>
        <mxCell id="P1ksJmV45zGPL9x8nw98-149" value="" style="endArrow=classic;html=1;rounded=0;" edge="1" parent="1">
          <mxGeometry width="50" height="50" relative="1" as="geometry">
            <mxPoint x="599.5" y="4760" as="sourcePoint" />
            <mxPoint x="600" y="4840" as="targetPoint" />
          </mxGeometry>
        </mxCell>
        <mxCell id="P1ksJmV45zGPL9x8nw98-150" value="gameNumber = gameNumber+1" style="rounded=0;whiteSpace=wrap;html=1;" vertex="1" parent="1">
          <mxGeometry x="500" y="4840" width="220" height="60" as="geometry" />
        </mxCell>
        <mxCell id="P1ksJmV45zGPL9x8nw98-152" value="" style="endArrow=classic;html=1;rounded=0;" edge="1" parent="1">
          <mxGeometry width="50" height="50" relative="1" as="geometry">
            <mxPoint x="600" y="4900" as="sourcePoint" />
            <mxPoint x="600" y="4980" as="targetPoint" />
          </mxGeometry>
        </mxCell>
        <mxCell id="P1ksJmV45zGPL9x8nw98-154" value="Play game again until gameNumber equals 3" style="rhombus;whiteSpace=wrap;html=1;" vertex="1" parent="1">
          <mxGeometry x="526.87" y="4980" width="146.25" height="130" as="geometry" />
        </mxCell>
        <mxCell id="P1ksJmV45zGPL9x8nw98-158" value="" style="endArrow=none;html=1;rounded=0;" edge="1" parent="1">
          <mxGeometry width="50" height="50" relative="1" as="geometry">
            <mxPoint x="440" y="5044.5" as="sourcePoint" />
            <mxPoint x="530" y="5044.5" as="targetPoint" />
          </mxGeometry>
        </mxCell>
        <mxCell id="P1ksJmV45zGPL9x8nw98-160" value="" style="endArrow=classic;html=1;rounded=0;" edge="1" parent="1">
          <mxGeometry width="50" height="50" relative="1" as="geometry">
            <mxPoint x="440" y="5040" as="sourcePoint" />
            <mxPoint x="440" y="5200" as="targetPoint" />
          </mxGeometry>
        </mxCell>
        <mxCell id="P1ksJmV45zGPL9x8nw98-161" value="YES" style="edgeLabel;html=1;align=center;verticalAlign=middle;resizable=0;points=[];" vertex="1" connectable="0" parent="P1ksJmV45zGPL9x8nw98-160">
          <mxGeometry x="-0.0125" y="2" relative="1" as="geometry">
            <mxPoint as="offset" />
          </mxGeometry>
        </mxCell>
        <mxCell id="P1ksJmV45zGPL9x8nw98-162" value="EXIT" style="ellipse;whiteSpace=wrap;html=1;" vertex="1" parent="1">
          <mxGeometry x="346.87" y="5200" width="180" height="90" as="geometry" />
        </mxCell>
        <mxCell id="P1ksJmV45zGPL9x8nw98-164" value="" style="endArrow=none;html=1;rounded=0;exitX=0.979;exitY=0.496;exitDx=0;exitDy=0;exitPerimeter=0;" edge="1" parent="1" source="P1ksJmV45zGPL9x8nw98-154">
          <mxGeometry width="50" height="50" relative="1" as="geometry">
            <mxPoint x="680" y="5044.5" as="sourcePoint" />
            <mxPoint x="940" y="5050" as="targetPoint" />
          </mxGeometry>
        </mxCell>
        <mxCell id="P1ksJmV45zGPL9x8nw98-166" value="NO" style="edgeLabel;html=1;align=center;verticalAlign=middle;resizable=0;points=[];" vertex="1" connectable="0" parent="P1ksJmV45zGPL9x8nw98-164">
          <mxGeometry x="-0.1079" y="-2" relative="1" as="geometry">
            <mxPoint as="offset" />
          </mxGeometry>
        </mxCell>
        <mxCell id="P1ksJmV45zGPL9x8nw98-168" value="NO" style="endArrow=none;html=1;rounded=0;" edge="1" parent="1">
          <mxGeometry width="50" height="50" relative="1" as="geometry">
            <mxPoint x="940" y="5050" as="sourcePoint" />
            <mxPoint x="930" y="760" as="targetPoint" />
          </mxGeometry>
        </mxCell>
        <mxCell id="P1ksJmV45zGPL9x8nw98-170" value="NO" style="edgeLabel;html=1;align=center;verticalAlign=middle;resizable=0;points=[];" vertex="1" connectable="0" parent="P1ksJmV45zGPL9x8nw98-168">
          <mxGeometry x="-0.8839" y="-1" relative="1" as="geometry">
            <mxPoint as="offset" />
          </mxGeometry>
        </mxCell>
        <mxCell id="P1ksJmV45zGPL9x8nw98-171" value="NO" style="edgeLabel;html=1;align=center;verticalAlign=middle;resizable=0;points=[];" vertex="1" connectable="0" parent="P1ksJmV45zGPL9x8nw98-168">
          <mxGeometry x="-0.6751" y="-5" relative="1" as="geometry">
            <mxPoint as="offset" />
          </mxGeometry>
        </mxCell>
        <mxCell id="P1ksJmV45zGPL9x8nw98-172" value="NO" style="edgeLabel;html=1;align=center;verticalAlign=middle;resizable=0;points=[];" vertex="1" connectable="0" parent="P1ksJmV45zGPL9x8nw98-168">
          <mxGeometry x="-0.4457" y="-5" relative="1" as="geometry">
            <mxPoint as="offset" />
          </mxGeometry>
        </mxCell>
        <mxCell id="P1ksJmV45zGPL9x8nw98-177" value="NO" style="edgeLabel;html=1;align=center;verticalAlign=middle;resizable=0;points=[];" vertex="1" connectable="0" parent="P1ksJmV45zGPL9x8nw98-168">
          <mxGeometry x="0.2415" y="1" relative="1" as="geometry">
            <mxPoint as="offset" />
          </mxGeometry>
        </mxCell>
        <mxCell id="P1ksJmV45zGPL9x8nw98-179" value="NO" style="edgeLabel;html=1;align=center;verticalAlign=middle;resizable=0;points=[];" vertex="1" connectable="0" parent="P1ksJmV45zGPL9x8nw98-168">
          <mxGeometry x="0.5212" y="-3" relative="1" as="geometry">
            <mxPoint as="offset" />
          </mxGeometry>
        </mxCell>
        <mxCell id="P1ksJmV45zGPL9x8nw98-180" value="NO" style="edgeLabel;html=1;align=center;verticalAlign=middle;resizable=0;points=[];" vertex="1" connectable="0" parent="P1ksJmV45zGPL9x8nw98-168">
          <mxGeometry x="0.7091" y="2" relative="1" as="geometry">
            <mxPoint as="offset" />
          </mxGeometry>
        </mxCell>
        <mxCell id="P1ksJmV45zGPL9x8nw98-183" value="NO" style="edgeLabel;html=1;align=center;verticalAlign=middle;resizable=0;points=[];" vertex="1" connectable="0" parent="P1ksJmV45zGPL9x8nw98-168">
          <mxGeometry x="0.9767" y="-3" relative="1" as="geometry">
            <mxPoint as="offset" />
          </mxGeometry>
        </mxCell>
        <mxCell id="P1ksJmV45zGPL9x8nw98-169" value="" style="endArrow=classic;html=1;rounded=0;entryX=1;entryY=1;entryDx=0;entryDy=0;" edge="1" parent="1" target="P1ksJmV45zGPL9x8nw98-9">
          <mxGeometry width="50" height="50" relative="1" as="geometry">
            <mxPoint x="930" y="760" as="sourcePoint" />
            <mxPoint x="980" y="710" as="targetPoint" />
          </mxGeometry>
        </mxCell>
        <mxCell id="P1ksJmV45zGPL9x8nw98-184" value="NO" style="edgeLabel;html=1;align=center;verticalAlign=middle;resizable=0;points=[];" vertex="1" connectable="0" parent="P1ksJmV45zGPL9x8nw98-169">
          <mxGeometry x="0.039" y="1" relative="1" as="geometry">
            <mxPoint as="offset" />
          </mxGeometry>
        </mxCell>
      </root>
    </mxGraphModel>
  </diagram>
</mxfile>
